# xmcd CD database file
#
# Track frame offsets:
#	150
#	19453
#	34638
#	52788
#	65088
#	78813
#	99213
#	115563
#	129898
#	143552
#	160488
#	180888
#
# Disc length: 3095 seconds
#
# Revision: 0
# Processed by: cddbd v1.4PL0 Copyright (c) Steve Scherf et al.
# Submitted via: CDex 1.50Beta6
#
DISCID=860c150c
DTITLE=NCS - The Blue
DYEAR=2002
DGENRE=Blues
TTITLE0=Lilly Of The West
TTITLE1=I Allways Felt The Same
TTITLE2=She Hangs Up On Me
TTITLE3=Texas Truck DJ*7134
TTITLE4=Drive My Car
TTITLE5=I Hear The Grass Grow
TTITLE6=The Wind Cries Mary
TTITLE7=Fireblade
TTITLE8=Oh Man You Made An Ass Of Yourself
TTITLE9=Dishes
TTITLE10=Grass Is Greener Over There
TTITLE11=Ronja
EXTD=YEAR: 2002
EXTT0=
EXTT1=
EXTT2=
EXTT3=
EXTT4=
EXTT5=
EXTT6=
EXTT7=
EXTT8=
EXTT9=
EXTT10=
EXTT11=
PLAYORDER=
